<?xml version="1.0" encoding="utf-8"?>
<!-- Generator: Adobe Illustrator 18.1.1, SVG Export Plug-In . SVG Version: 6.00 Build 0)  -->
<!DOCTYPE svg PUBLIC "-//W3C//DTD SVG 1.1//EN" "http://www.w3.org/Graphics/SVG/1.1/DTD/svg11.dtd">
<svg xmlns="http://www.w3.org/2000/svg" xmlns:xlink="http://www.w3.org/1999/xlink" version="1.1" id="Layer_1" x="0px" y="0px" width="84px" height="64px" viewBox="0 0 84 64" xml:space="preserve">
<path fill="#98A5B9" d="M78,0c-3.309,0-6,2.691-6,6c0,1.777,0.792,3.359,2.023,4.458L56.421,38.52C55.679,38.191,54.863,38,54,38  c-1.736,0-3.289,0.752-4.385,1.934L31.468,28.444C31.804,27.695,32,26.872,32,26c0-3.309-2.691-6-6-6c-3.309,0-6,2.691-6,6  c0,1.807,0.82,3.411,2.088,4.512L8.298,52.461C7.59,52.166,6.814,52,6,52c-3.309,0-6,2.691-6,6s2.691,6,6,6c3.309,0,6-2.691,6-6  c0-1.776-0.79-3.356-2.02-4.456l13.808-21.979C24.474,31.839,25.217,32,26,32c1.717,0,3.258-0.734,4.353-1.895l18.155,11.496  C48.185,42.337,48,43.146,48,44c0,3.309,2.691,6,6,6c3.309,0,6-2.691,6-6c0-1.726-0.743-3.272-1.913-4.368l17.62-28.092  C76.414,11.834,77.187,12,78,12c3.309,0,6-2.691,6-6S81.309,0,78,0z M10,58c0,2.205-1.795,4-4,4c-2.205,0-4-1.795-4-4s1.795-4,4-4  C8.205,54,10,55.795,10,58z M26,30c-2.205,0-4-1.795-4-4s1.795-4,4-4c2.205,0,4,1.795,4,4S28.205,30,26,30z M54,48  c-2.205,0-4-1.795-4-4s1.795-4,4-4c2.205,0,4,1.795,4,4S56.205,48,54,48z M78,10c-2.205,0-4-1.795-4-4s1.795-4,4-4  c2.205,0,4,1.795,4,4S80.205,10,78,10z"/>
</svg>
