<?xml version="1.0" encoding="utf-8"?>
<!-- Generator: Adobe Illustrator 18.1.1, SVG Export Plug-In . SVG Version: 6.00 Build 0)  -->
<!DOCTYPE svg PUBLIC "-//W3C//DTD SVG 1.1//EN" "http://www.w3.org/Graphics/SVG/1.1/DTD/svg11.dtd">
<svg xmlns="http://www.w3.org/2000/svg" xmlns:xlink="http://www.w3.org/1999/xlink" version="1.1" id="Layer_1" x="0px" y="0px" width="78px" height="64px" viewBox="0 0 78 64" xml:space="preserve">
<g>
	<path fill="#98A5B9" d="M3,50h35v3c0,0.553,0.447,1,1,1c0.553,0,1-0.447,1-1v-3h35c1.654,0,3-1.346,3-3V3c0-1.654-1.346-3-3-3H3   C1.346,0,0,1.346,0,3v44C0,48.654,1.346,50,3,50z M2,3c0-0.552,0.448-1,1-1h72c0.552,0,1,0.448,1,1v44c0,0.552-0.448,1-1,1H3   c-0.552,0-1-0.448-1-1V3z"/>
	<path fill="#98A5B9" d="M7,44h64c0.553,0,1-0.447,1-1V7c0-0.553-0.447-1-1-1H7C6.447,6,6,6.447,6,7v36C6,43.553,6.447,44,7,44z    M8,8h62v34H8V8z"/>
	<path fill="#98A5B9" d="M28,56c-2.28,0-4,1.72-4,4v3c0,0.553,0.447,1,1,1h28c0.553,0,1-0.447,1-1v-2.85c0-2.327-1.757-4.15-4-4.15   H28z M52,60.15V62H26v-2c0-1.178,0.822-2,2-2h22C51.141,58,52,58.925,52,60.15z"/>
</g>
</svg>
